<svg xmlns="http://www.w3.org/2000/svg" width="1180" height="720" viewBox="0 0 1180 720" role="img" aria-labelledby="title desc">
  <title id="title">Fake WhatsApp and Orkestr web UI demo</title>
  <desc id="desc">A fake-data Orkestr demo showing a WhatsApp task, browser cockpit routing, Codex result, and ready status.</desc>
  <defs>
    <linearGradient id="page-bg" x1="0" x2="1" y1="0" y2="1">
      <stop offset="0%" stop-color="#eef4e8" />
      <stop offset="52%" stop-color="#d7e7d8" />
      <stop offset="100%" stop-color="#18261f" />
    </linearGradient>
    <linearGradient id="web-bg" x1="0" x2="1" y1="0" y2="1">
      <stop offset="0%" stop-color="#172720" />
      <stop offset="100%" stop-color="#07100d" />
    </linearGradient>
    <pattern id="chat-dots" width="28" height="28" patternUnits="userSpaceOnUse">
      <circle cx="4" cy="4" r="1.2" fill="#bcc9bc" opacity="0.45" />
    </pattern>
    <filter id="shadow" x="-10%" y="-10%" width="120%" height="120%">
      <feDropShadow dx="0" dy="14" stdDeviation="18" flood-color="#0f241c" flood-opacity="0.18" />
    </filter>
  </defs>
  <style>
    .title { font: 700 28px Georgia, serif; fill: #12352b; }
    .subtle { font: 500 13px Verdana, sans-serif; fill: #5f756a; }
    .sender { font: 700 13px Verdana, sans-serif; }
    .message { font: 500 16px Verdana, sans-serif; fill: #1d2c27; }
    .small { font-size: 13px; }
    .time { font: 500 11px Verdana, sans-serif; fill: #75827a; }
    .pill { font: 700 12px Verdana, sans-serif; letter-spacing: 0.4px; }
    .web-title { font: 700 22px Verdana, sans-serif; fill: #f7fff9; }
    .web-label { font: 700 14px Verdana, sans-serif; fill: #eef8f1; }
    .web-muted { font: 500 12px Verdana, sans-serif; fill: #95ad9f; }
    .web-value { font: 700 30px Georgia, serif; fill: #ffffff; }
    .caption { font: 700 18px Verdana, sans-serif; fill: #16382d; }
  </style>
  <rect width="1180" height="720" fill="url(#page-bg)" />
  <circle cx="110" cy="620" r="170" fill="#c7e2bb" opacity="0.45" />
  <circle cx="1040" cy="104" r="140" fill="#5aa77e" opacity="0.18" />

  <text x="56" y="64" class="title">Chat asks. Orkestr routes. Codex finishes.</text>
  <text x="56" y="91" class="subtle">Fake data only - no real phone, host, chat ID, repository, local path, or secret</text>

  <g filter="url(#shadow)" transform="translate(38 122)">
    <rect x="0" y="0" width="438" height="548" rx="38" fill="#f8faf4" />
    <rect x="18" y="74" width="402" height="412" fill="#edf2e9" />
    <rect x="18" y="74" width="402" height="412" fill="url(#chat-dots)" opacity="0.9" />
    <rect x="18" y="18" width="402" height="72" rx="26" fill="#f8faf4" />
    <circle cx="58" cy="54" r="23" fill="#1f7d5a" />
    <text x="58" y="62" text-anchor="middle" font-family="Verdana, sans-serif" font-size="18" font-weight="700" fill="#fff">O</text>
    <text x="94" y="50" class="caption">Demo Team Chat</text>
    <text x="94" y="70" class="subtle">Orkestr-bound WhatsApp</text>
    
    <g>
      <rect x="142" y="112" width="286" height="92" rx="18" fill="#dff8ca" stroke="#b5dfa0" />
      <text x="160" y="139" class="sender" fill="#426a33">User</text>
      <text x="160" y="163" class="message small"><tspan x="160" dy="0">Review the launch checklist</tspan><tspan x="160" dy="18">and tell me the top blockers.</tspan></text>
      <text x="380" y="190" class="time">09:41</text>
    </g>
    <g>
      <rect x="72" y="198" width="316" height="92" rx="18" fill="#ffffff" stroke="#d7ded7" />
      <text x="90" y="225" class="sender" fill="#315a4a">Orkestr</text>
      <text x="90" y="249" class="message small"><tspan x="90" dy="0">Thread demo-launch is awake.</tspan><tspan x="90" dy="18">Status: working. Routed to Codex.</tspan></text>
      <text x="340" y="276" class="time">09:41</text>
    </g>
    <g>
      <rect x="72" y="284" width="316" height="128" rx="18" fill="#ffffff" stroke="#d7ded7" />
      <text x="90" y="311" class="sender" fill="#315a4a">Codex</text>
      <text x="90" y="335" class="message small"><tspan x="90" dy="0">Done. Top blockers: setup copy is</tspan><tspan x="90" dy="18">vague, the README asset is stale,</tspan><tspan x="90" dy="18">and the smoke-test note is</tspan><tspan x="90" dy="18">missing.</tspan></text>
      <text x="340" y="398" class="time">09:42</text>
    </g>
    <g>
      <rect x="72" y="370" width="316" height="92" rx="18" fill="#ffffff" stroke="#d7ded7" />
      <text x="90" y="397" class="sender" fill="#315a4a">Orkestr</text>
      <text x="90" y="421" class="message small"><tspan x="90" dy="0">Status: ready. Reply mirrored to</tspan><tspan x="90" dy="18">this chat.</tspan></text>
      <text x="340" y="448" class="time">09:42</text>
    </g>
    <rect x="36" y="501" width="366" height="30" rx="15" fill="#ffffff" />
    <text x="58" y="521" class="subtle">Message mirrored back when thread is ready</text>
  </g>

  <g filter="url(#shadow)" transform="translate(524 122)">
    <rect x="0" y="0" width="598" height="548" rx="30" fill="url(#web-bg)" />
    <rect x="0" y="0" width="598" height="58" rx="30" fill="#10221b" />
    <circle cx="32" cy="30" r="6" fill="#f36f5d" />
    <circle cx="54" cy="30" r="6" fill="#f2c14e" />
    <circle cx="76" cy="30" r="6" fill="#55c984" />
    <text x="112" y="37" class="web-title">Orkestr Web</text>
    <text x="430" y="36" class="web-muted">local cockpit</text>

    <rect x="28" y="88" width="166" height="86" rx="18" fill="#16362b" stroke="#315a4a" />
    <text x="48" y="119" class="web-muted">Thread</text>
    <text x="48" y="151" class="web-label">demo-launch</text>
    <rect x="216" y="88" width="166" height="86" rx="18" fill="#3c3217" stroke="#6d5421" />
    <text x="236" y="119" class="web-muted">Status</text>
    <text x="236" y="151" class="web-label">working -> ready</text>
    <rect x="404" y="88" width="166" height="86" rx="18" fill="#13273a" stroke="#294d72" />
    <text x="424" y="119" class="web-muted">Connector</text>
    <text x="424" y="151" class="web-label">fake WhatsApp</text>

    <rect x="28" y="204" width="250" height="282" rx="22" fill="#0b1713" stroke="#243c32" />
    <text x="52" y="238" class="web-label">Conversation</text>
    <rect x="52" y="262" width="184" height="34" rx="17" fill="#20362d" />
    <text x="68" y="284" class="web-muted">Task received</text>
    <rect x="52" y="312" width="204" height="54" rx="17" fill="#172a23" />
    <text x="68" y="334" class="web-muted">Codex: reviewing checklist</text>
    <text x="68" y="352" class="web-muted">no files changed</text>
    <rect x="52" y="386" width="184" height="34" rx="17" fill="#20362d" />
    <text x="68" y="408" class="web-muted">Reply mirrored</text>
    <rect x="52" y="440" width="112" height="28" rx="14" fill="#48c78e" />
    <text x="78" y="459" class="pill" fill="#062116">READY</text>

    <rect x="308" y="204" width="262" height="282" rx="22" fill="#0b1713" stroke="#243c32" />
    <text x="332" y="238" class="web-label">Thread Timeline</text>
    <path d="M352 318v144" stroke="#2c493d" stroke-width="3" stroke-linecap="round" />
    
    <g>
      <circle cx="352" cy="318" r="9" fill="#77a6f7" />
      <rect x="378" y="298" width="170" height="44" rx="12" fill="#111f1a" stroke="#2c493d" />
      <text x="394" y="316" class="web-label">WhatsApp task received</text>
      <text x="394" y="335" class="web-muted">demo-launch</text>
    </g>
    <g>
      <circle cx="352" cy="390" r="9" fill="#f2c14e" />
      <rect x="378" y="370" width="170" height="44" rx="12" fill="#111f1a" stroke="#2c493d" />
      <text x="394" y="388" class="web-label">Codex is working</text>
      <text x="394" y="407" class="web-muted">checklist review</text>
    </g>
    <g>
      <circle cx="352" cy="462" r="9" fill="#48c78e" />
      <rect x="378" y="442" width="170" height="44" rx="12" fill="#111f1a" stroke="#2c493d" />
      <text x="394" y="460" class="web-label">Final answer mirrored</text>
      <text x="394" y="479" class="web-muted">ready for next task</text>
    </g>

    <rect x="28" y="506" width="542" height="22" rx="11" fill="#20362d" />
    <rect x="28" y="506" width="486" height="22" rx="11" fill="#48c78e" />
    <text x="44" y="522" class="web-muted" fill="#eaffef">status sync: WhatsApp -> Orkestr -> Codex -> WhatsApp</text>
  </g>

  <g transform="translate(484 350)">
    <rect x="0" y="0" width="56" height="56" rx="28" fill="#f8faf4" filter="url(#shadow)" />
    <path d="M18 28h20" stroke="#1f7d5a" stroke-width="4" stroke-linecap="round" />
    <path d="M32 20l10 8-10 8" fill="none" stroke="#1f7d5a" stroke-width="4" stroke-linecap="round" stroke-linejoin="round" />
  </g>
</svg>
